<?xml version="1.0" standalone="no"?>
<!DOCTYPE svg PUBLIC "-//W3C//DTD SVG 20010904//EN"
 "http://www.w3.org/TR/2001/REC-SVG-20010904/DTD/svg10.dtd">
<svg version="1.0" xmlns="http://www.w3.org/2000/svg"
 width="480.000000pt" height="200.000000pt" viewBox="0 0 480.000000 200.000000"
 preserveAspectRatio="xMidYMid meet">

<g transform="translate(0.000000,200.000000) scale(0.100000,-0.100000)"
fill="#000000" stroke="none">
<path d="M840 1989 c-87 -13 -230 -62 -310 -106 -251 -137 -425 -359 -502
-641 -31 -111 -31 -373 0 -484 50 -185 135 -333 266 -464 131 -131 279 -216
464 -266 111 -31 373 -31 484 0 185 50 333 135 464 266 131 131 216 279 266
464 31 111 31 373 0 484 -100 366 -370 635 -730 729 -91 24 -303 33 -402 18z
m740 -549 l0 -140 -152 0 c-84 0 -170 -5 -190 -10 -46 -13 -78 -52 -78 -96 l0
-34 140 0 140 0 0 -145 0 -145 -139 0 -138 0 -5 -99 c-4 -83 -10 -108 -36
-164 -39 -84 -105 -150 -190 -190 -61 -29 -75 -32 -167 -32 -88 0 -107 3 -157
27 -80 37 -152 107 -191 187 -30 61 -32 73 -32 166 0 92 3 106 32 167 40 85
106 151 190 190 56 26 81 32 164 36 l99 5 0 31 c0 43 25 138 50 185 25 50 102
126 154 153 80 41 114 47 314 47 l192 1 0 -140z"/>
<path d="M870 1015 l0 -145 -69 0 c-79 0 -115 -20 -129 -73 -11 -43 -4 -72 24
-101 29 -28 58 -35 101 -24 53 14 73 50 73 129 l0 69 145 0 145 0 0 145 0 145
-145 0 -145 0 0 -145z"/>
<path d="M2586 1435 c-88 -32 -132 -95 -143 -208 l-6 -67 -43 0 -44 0 0 -80 0
-80 45 0 45 0 0 -240 0 -240 90 0 90 0 0 240 0 240 65 0 65 0 0 80 0 80 -66 0
-67 0 6 36 c9 55 32 74 89 74 l49 0 -3 88 -3 87 -65 2 c-37 2 -82 -4 -104 -12z"/>
<path d="M2840 980 l0 -460 90 0 90 0 0 460 0 460 -90 0 -90 0 0 -460z"/>
<path d="M3344 1186 c-139 -35 -230 -136 -254 -281 -24 -149 49 -293 182 -361
42 -22 71 -28 138 -32 116 -5 183 20 261 97 77 78 102 145 97 261 -3 75 -8 94
-39 150 -74 135 -235 204 -385 166z m152 -185 c69 -32 108 -122 84 -196 -47
-143 -217 -163 -289 -35 -46 82 -12 192 71 233 43 22 83 21 134 -2z"/>
<path d="M3780 1173 c0 -7 72 -252 171 -586 l20 -68 96 3 96 3 56 167 c31 92
59 169 62 173 3 3 35 -73 70 -170 l63 -175 96 0 95 0 94 318 c51 174 96 323
98 330 4 9 -19 12 -91 12 l-95 0 -10 -37 c-5 -21 -29 -112 -52 -203 -23 -91
-45 -169 -49 -173 -4 -4 -40 87 -80 203 l-73 210 -89 0 c-95 0 -97 -1 -74 -55
11 -27 8 -44 -43 -197 -31 -93 -58 -168 -61 -168 -3 0 -30 95 -60 210 l-55
210 -92 0 c-51 0 -93 -3 -93 -7z"/>
</g>
</svg>
